<svg width="69" height="56" viewBox="0 0 69 56" fill="none" xmlns="http://www.w3.org/2000/svg">
<path d="M68.6844 11.4881C68.5968 11.9735 68.5305 12.4642 68.4138 12.9417C67.8594 15.2335 66.5225 17.0107 64.7188 18.4695C63.1777 19.7162 61.4297 20.5756 59.5385 21.1433C59.2546 21.2282 59.1645 21.3502 59.1645 21.6473C59.1724 29.8595 59.1724 38.0717 59.1645 46.2812C59.1645 46.6313 59.2865 46.6897 59.6021 46.7056C60.13 46.7321 60.6844 46.7428 61.1724 46.9205C62.3687 47.3528 62.9019 48.4828 62.7427 49.8382C62.2918 53.6579 58.7507 55.9629 55.5995 55.9603C42.6605 55.9496 29.7215 55.955 16.7798 55.955C13.6207 55.955 10.4615 55.9603 7.30239 55.9523C4.15651 55.947 1.24669 53.817 0.442979 50.8807C0.26526 50.2282 0.185684 49.5093 0.24404 48.8382C0.347488 47.6632 1.42176 46.7587 2.60478 46.7083C2.90717 46.695 3.21221 46.6897 3.5146 46.6977C3.73741 46.703 3.82494 46.6101 3.80637 46.3926C3.79842 46.2839 3.80637 46.1751 3.80637 46.0637C3.80637 36.504 3.80637 26.9443 3.80637 17.3847C3.80637 15.939 4.74537 14.7772 6.11407 14.5199C6.27852 14.4881 6.45093 14.4908 6.6207 14.4908C17.6658 14.4908 28.7082 14.4908 39.7533 14.4908C39.9204 14.4908 40.0902 14.4908 40.2997 14.4908C40.2653 14.3608 40.2467 14.2706 40.2149 14.1857C38.9045 10.6764 39.6711 7.56769 42.122 4.84885C44.4085 2.31304 47.374 0.981478 50.6764 0.374051C53.9125 -0.220113 57.1114 -0.0185206 60.2255 1.07962C63.0292 2.06901 65.4297 3.62604 67.122 6.13798C67.9629 7.38732 68.4801 8.75867 68.6048 10.2706C68.6127 10.3634 68.6525 10.4536 68.679 10.5465C68.6843 10.8568 68.6844 11.1725 68.6844 11.4881ZM56.7613 21.8038C56.6446 21.8038 56.5836 21.7985 56.5252 21.8038C54.3475 22.0743 52.1883 21.9762 50.0398 21.5279C49.9072 21.5014 49.7241 21.5518 49.6048 21.6287C47.4642 23.069 45.0822 23.8462 42.5464 24.2016C41.8037 24.3051 41.2414 24.0531 40.9231 23.4934C40.6048 22.9337 40.687 22.3369 41.1645 21.7454C41.9072 20.825 42.4085 19.7852 42.7401 18.6552C42.8753 18.1937 42.8727 17.8064 42.4324 17.512C42.3342 17.4457 42.2467 17.3502 42.183 17.2494C41.9761 16.9311 41.695 16.8542 41.3183 16.8542C29.8753 16.8648 18.4297 16.8621 6.98674 16.8621C6.8886 16.8621 6.79311 16.8674 6.69497 16.8621C6.42972 16.8489 6.28117 16.9921 6.23078 17.2308C6.19895 17.382 6.19629 17.5438 6.19364 17.7003C6.19099 27.199 6.19099 36.6977 6.19364 46.1963C6.19364 46.695 6.19364 46.695 6.68701 46.695C11.618 46.695 16.5517 46.7003 21.4828 46.6897C22.1857 46.6871 22.817 46.8409 23.4138 47.2149C23.992 47.5783 24.618 47.8595 25.321 47.8595C29.4403 47.8621 33.557 47.8648 37.6764 47.8568C38.3475 47.8542 39.0398 47.8064 39.5809 47.3634C40.1963 46.8595 40.8859 46.7109 41.6472 46.7109C46.5066 46.7136 51.3661 46.7083 56.2255 46.7056C56.7586 46.7056 56.7586 46.7056 56.7586 46.1804C56.7586 38.2122 56.7586 30.2441 56.7586 22.2759C56.7613 22.1327 56.7613 21.9894 56.7613 21.8038ZM44.2679 21.4191C44.4403 21.3767 44.5783 21.3475 44.7135 21.3077C46.0637 20.9072 47.3183 20.3077 48.4669 19.4961C48.9921 19.1247 49.5199 18.9258 50.1989 19.0955C53.0504 19.8091 55.8992 19.7401 58.7215 18.9284C60.9417 18.2892 62.9204 17.2202 64.4722 15.4589C66.7003 12.9311 66.8355 9.64991 64.8223 6.98678C63.8594 5.71092 62.6233 4.75602 61.1963 4.06636C57.2202 2.14594 53.1167 1.9523 48.9363 3.28121C46.8886 3.93373 45.0743 5.00005 43.6791 6.67114C42.3104 8.31305 41.6817 10.1804 42.1406 12.321C42.4854 13.939 43.4005 15.2202 44.6101 16.3051C44.9655 16.6234 45.1485 17.008 45.2069 17.4722C45.3077 18.2361 45.1592 18.9709 44.9231 19.6897C44.7348 20.252 44.5013 20.8064 44.2679 21.4191ZM31.3183 53.5969C39.2759 53.5969 47.2361 53.5995 55.1936 53.5889C55.7347 53.5889 56.2891 53.5226 56.8143 53.3953C58.7268 52.9311 60.0928 51.4271 60.3369 49.573C60.3979 49.1194 60.3661 49.0823 59.8806 49.0823C56.1512 49.0876 52.4218 49.0929 48.6897 49.1008C46.321 49.1061 43.9523 49.1141 41.5836 49.1274C41.4218 49.1274 41.2202 49.1406 41.1035 49.2308C40.1088 49.9947 38.9602 50.2335 37.7454 50.2335C33.7003 50.2388 29.6525 50.2229 25.6074 50.2441C24.5172 50.2494 23.4987 50.0292 22.5756 49.4802C22.0371 49.1618 21.5013 49.069 20.8886 49.0717C15.3714 49.0902 9.85677 49.0823 4.33953 49.0823C3.89125 49.0823 3.44033 49.0902 2.99205 49.0796C2.70293 49.0717 2.57826 49.1565 2.60213 49.4802C2.68701 50.5385 3.13794 51.4165 3.88595 52.138C4.95491 53.1672 6.26261 53.5969 7.7321 53.5969C15.5968 53.5942 23.4589 53.5969 31.3183 53.5969Z" fill="#3A3A3A"/>
<path d="M31.5517 45.1141C28.1273 45.1141 24.7029 45.1141 21.2785 45.1115C21.061 45.1115 20.8408 45.1062 20.626 45.0717C20.1061 44.9895 19.6711 44.5836 19.6631 44.0319C19.6419 42.5916 19.496 41.1433 19.8461 39.7189C20.5438 36.8781 23.0981 34.7852 26.0186 34.7508C29.5756 34.7057 33.1353 34.7322 36.6923 34.7163C40.1724 34.7004 42.3024 36.9073 43.0186 38.8966C43.2679 39.5943 43.4111 40.3476 43.4828 41.0876C43.565 41.955 43.5199 42.833 43.5146 43.7083C43.5093 44.6261 43.0451 45.0982 42.1194 45.1088C41.1724 45.1221 40.2255 45.1115 39.2785 45.1115C36.7003 45.1141 34.1247 45.1141 31.5517 45.1141ZM31.557 42.7057C32.6737 42.7057 33.7904 42.7057 34.9098 42.7057C36.8408 42.7057 38.7719 42.703 40.7029 42.7083C40.9602 42.7083 41.1141 42.6765 41.0928 42.3582C41.0663 41.9603 41.0981 41.5571 41.0796 41.1566C40.9708 38.9046 39.252 37.1539 36.9973 37.1248C33.4642 37.077 29.931 37.0903 26.3952 37.1035C24.5464 37.1088 23.1963 37.963 22.3979 39.642C22.0053 40.4669 22.0371 41.3608 22.0159 42.2468C22.008 42.6181 22.1141 42.7163 22.4854 42.7136C25.5093 42.6977 28.5332 42.7057 31.557 42.7057Z" fill="#A71E22"/>
<path d="M31.5464 33.138C27.6711 33.1195 24.5942 29.9975 24.6074 26.0956C24.6207 22.3582 27.7533 19.2282 31.5517 19.2468C35.496 19.2654 38.5358 22.3635 38.5252 26.215C38.5172 30.0823 35.374 33.1539 31.5464 33.138ZM27.0212 26.1805C27.0133 28.6977 29.0478 30.7375 31.573 30.7481C34.0478 30.7587 36.1035 28.7163 36.1114 26.2441C36.1194 23.6951 34.1247 21.6579 31.6021 21.642C29.0769 21.6261 27.0292 23.6553 27.0212 26.1805Z" fill="#A71E22"/>
<path d="M53.9231 12.0106C56.1326 12.0106 58.3422 12.0106 60.5517 12.0106C61.3422 12.0106 61.8806 12.4907 61.8859 13.191C61.8912 13.8806 61.3448 14.3846 60.5597 14.3846C56.1273 14.3873 51.6976 14.3873 47.2652 14.3846C46.5411 14.3846 46.0451 13.9682 45.9576 13.3236C45.8833 12.7533 46.2759 12.1883 46.8621 12.0451C47 12.0106 47.1512 12.0106 47.2944 12.0106C49.504 12.0106 51.7135 12.0106 53.9231 12.0106Z" fill="#3A3A3A"/>
<path d="M50.199 9.77994C49.2175 9.77994 48.2334 9.78259 47.252 9.77994C46.4934 9.77729 45.9602 9.28922 45.9549 8.59957C45.947 7.91256 46.4722 7.41124 47.2361 7.40859C49.2387 7.40328 51.2387 7.40063 53.2414 7.40859C53.9788 7.41124 54.4987 7.90726 54.5066 8.581C54.5119 9.2627 53.9708 9.77463 53.2228 9.77729C52.2122 9.78524 51.2043 9.77994 50.199 9.77994Z" fill="#3A3A3A"/>
</svg>
