<svg width="31" height="31" viewBox="0 0 31 31" fill="none" xmlns="http://www.w3.org/2000/svg">
<path d="M15.7749 7.61328C19.9585 7.61328 23.4116 11.0664 23.4116 15.25C23.4116 19.5 19.9585 22.8867 15.7749 22.8867C11.5249 22.8867 8.13818 19.5 8.13818 15.25C8.13818 11.0664 11.5249 7.61328 15.7749 7.61328ZM15.7749 20.2305C18.4976 20.2305 20.689 18.0391 20.689 15.25C20.689 12.5273 18.4976 10.3359 15.7749 10.3359C12.9858 10.3359 10.7944 12.5273 10.7944 15.25C10.7944 18.0391 13.0522 20.2305 15.7749 20.2305ZM25.4702 7.34766C25.4702 8.34375 24.6733 9.14062 23.6772 9.14062C22.6812 9.14062 21.8843 8.34375 21.8843 7.34766C21.8843 6.35156 22.6812 5.55469 23.6772 5.55469C24.6733 5.55469 25.4702 6.35156 25.4702 7.34766ZM30.5171 9.14062C30.6499 11.5977 30.6499 18.9688 30.5171 21.4258C30.3843 23.8164 29.853 25.875 28.1265 27.668C26.3999 29.3945 24.2749 29.9258 21.8843 30.0586C19.4272 30.1914 12.0562 30.1914 9.59912 30.0586C7.2085 29.9258 5.1499 29.3945 3.35693 27.668C1.63037 25.875 1.09912 23.8164 0.966309 21.4258C0.833496 18.9688 0.833496 11.5977 0.966309 9.14062C1.09912 6.75 1.63037 4.625 3.35693 2.89844C5.1499 1.17188 7.2085 0.640625 9.59912 0.507812C12.0562 0.375 19.4272 0.375 21.8843 0.507812C24.2749 0.640625 26.3999 1.17188 28.1265 2.89844C29.853 4.625 30.3843 6.75 30.5171 9.14062ZM27.3296 24.0156C28.1265 22.0898 27.9272 17.4414 27.9272 15.25C27.9272 13.125 28.1265 8.47656 27.3296 6.48438C26.7983 5.22266 25.8022 4.16016 24.5405 3.69531C22.5483 2.89844 17.8999 3.09766 15.7749 3.09766C13.5835 3.09766 8.93506 2.89844 7.00928 3.69531C5.68115 4.22656 4.68506 5.22266 4.15381 6.48438C3.35693 8.47656 3.55615 13.125 3.55615 15.25C3.55615 17.4414 3.35693 22.0898 4.15381 24.0156C4.68506 25.3438 5.68115 26.3398 7.00928 26.8711C8.93506 27.668 13.5835 27.4688 15.7749 27.4688C17.8999 27.4688 22.5483 27.668 24.5405 26.8711C25.8022 26.3398 26.8647 25.3438 27.3296 24.0156Z" fill="#333333"/>
</svg>
