<svg width="31" height="31" viewBox="0 0 31 31" fill="none" xmlns="http://www.w3.org/2000/svg">
<path d="M28.215 0.375C29.3439 0.375 30.34 1.37109 30.34 2.56641V28C30.34 29.1953 29.3439 30.125 28.215 30.125H2.64856C1.51965 30.125 0.589966 29.1953 0.589966 28V2.56641C0.589966 1.37109 1.51965 0.375 2.64856 0.375H28.215ZM9.55481 25.875V11.7305H5.172V25.875H9.55481ZM7.3634 9.73828C8.75793 9.73828 9.88684 8.60938 9.88684 7.21484C9.88684 5.82031 8.75793 4.625 7.3634 4.625C5.90247 4.625 4.77356 5.82031 4.77356 7.21484C4.77356 8.60938 5.90247 9.73828 7.3634 9.73828ZM26.09 25.875V18.1055C26.09 14.3203 25.2267 11.332 20.7775 11.332C18.6525 11.332 17.1915 12.5273 16.5939 13.6562H16.5275V11.7305H12.3439V25.875H16.7267V18.9023C16.7267 17.043 17.0587 15.25 19.3829 15.25C21.6407 15.25 21.6407 17.375 21.6407 18.9688V25.875H26.09Z" fill="#333333"/>
</svg>
