<svg width="35" height="29" viewBox="0 0 35 29" fill="none" xmlns="http://www.w3.org/2000/svg">
<path d="M30.5704 7.34375C30.5704 7.67578 30.5704 7.94141 30.5704 8.27344C30.5704 17.5039 23.5978 28.0625 10.7814 28.0625C6.797 28.0625 3.14465 26.9336 0.0899658 24.9414C0.621216 25.0078 1.15247 25.0742 1.75012 25.0742C5.00403 25.0742 7.99231 23.9453 10.3829 22.0859C7.32825 22.0195 4.7384 20.0273 3.87512 17.2383C4.33997 17.3047 4.7384 17.3711 5.20325 17.3711C5.8009 17.3711 6.46497 17.2383 6.99622 17.1055C3.80872 16.4414 1.41809 13.6523 1.41809 10.2656V10.1992C2.34778 10.7305 3.47668 10.9961 4.60559 11.0625C2.67981 9.80078 1.4845 7.67578 1.4845 5.28516C1.4845 3.95703 1.81653 2.76172 2.41418 1.76562C5.86731 5.94922 11.047 8.73828 16.8243 9.07031C16.6915 8.53906 16.6251 8.00781 16.6251 7.47656C16.6251 3.625 19.7462 0.503906 23.5978 0.503906C25.59 0.503906 27.3829 1.30078 28.7111 2.69531C30.2384 2.36328 31.7657 1.76562 33.0939 0.96875C32.5626 2.62891 31.5001 3.95703 30.0392 4.82031C31.4337 4.6875 32.8282 4.28906 34.0236 3.75781C33.0939 5.15234 31.8986 6.34766 30.5704 7.34375Z" fill="#333333"/>
</svg>
